<?xml version="1.0" standalone="no"?>
<!DOCTYPE svg PUBLIC "-//W3C//DTD SVG 20010904//EN"
 "http://www.w3.org/TR/2001/REC-SVG-20010904/DTD/svg10.dtd">
<svg version="1.0" xmlns="http://www.w3.org/2000/svg"
 width="650.000000pt" height="650.000000pt" viewBox="0 0 650.000000 650.000000"
 preserveAspectRatio="xMidYMid meet">
<metadata>
Created by potrace 1.14, written by Peter Selinger 2001-2017
</metadata>
<g transform="translate(0.000000,650.000000) scale(0.100000,-0.100000)"
fill="#000000" stroke="none">
<path d="M3251 6073 c-2 -20 -2 -23 -23 -97 -70 -255 -271 -461 -572 -587 -60
-25 -75 -35 -60 -40 10 -3 30 -10 44 -14 65 -22 247 -121 317 -174 129 -96
234 -212 279 -308 l17 -34 35 52 c129 192 339 362 552 448 39 15 71 32 71 36
0 4 -24 17 -54 29 -209 85 -412 247 -496 396 -55 97 -75 149 -96 245 -7 33
-13 54 -14 48z"/>
<path d="M1865 5412 c-257 -136 -411 -227 -575 -340 -108 -74 -249 -182 -286
-219 l-25 -24 53 -47 c110 -98 295 -292 409 -431 64 -78 216 -282 230 -308 11
-20 1 -52 -76 -250 -244 -629 -514 -1261 -810 -1898 -122 -263 -448 -924 -555
-1125 -39 -74 -97 -182 -127 -240 -31 -58 -64 -120 -75 -138 -31 -51 -15 -48
28 5 53 65 307 319 424 424 730 655 1551 1088 2285 1203 150 23 163 25 260 32
498 39 1027 -58 1545 -283 129 -56 342 -161 398 -197 23 -14 44 -26 47 -26 19
0 343 -209 498 -322 327 -237 566 -451 931 -833 l48 -50 -30 55 c-167 310
-315 598 -508 988 -96 194 -174 354 -174 356 0 2 -23 53 -51 112 -293 622
-637 1432 -887 2089 l-30 79 31 46 c155 227 461 578 612 699 l73 59 -30 31
c-17 18 -77 66 -132 107 -56 41 -109 82 -119 90 -9 8 -19 14 -22 14 -3 0 -34
20 -71 45 -36 25 -69 45 -74 45 -4 0 -10 4 -12 8 -3 8 -19 18 -168 105 -125
73 -351 190 -356 184 -3 -2 0 -15 5 -28 5 -13 12 -44 15 -69 4 -25 10 -71 15
-103 8 -58 6 -345 -3 -382 -2 -11 -5 -29 -5 -40 -1 -11 -34 45 -74 125 -40 80
-76 151 -81 158 -5 9 -31 -12 -90 -73 l-83 -86 -49 58 c-27 32 -64 74 -81 93
-18 19 -33 38 -33 43 0 20 -26 -3 -115 -103 -84 -95 -95 -113 -82 -123 8 -7
38 -30 66 -52 28 -21 51 -45 51 -52 0 -52 -208 -353 -348 -503 l-23 -25 -31
35 c-71 80 -109 124 -222 257 l-120 140 -40 -47 c-23 -25 -61 -70 -86 -100
-25 -29 -50 -58 -55 -64 -6 -6 -50 -57 -99 -113 -49 -57 -91 -103 -94 -103 -6
0 2 -9 -131 155 -99 124 -184 247 -226 329 l-19 38 35 32 c19 17 50 43 69 57
l34 26 -54 64 c-30 35 -68 78 -83 95 -15 18 -34 39 -40 48 -7 10 -19 14 -27
11 -8 -4 -51 -51 -95 -105 l-80 -98 -90 89 -91 90 -74 -148 -75 -148 -6 65
c-7 74 -3 370 6 415 3 17 12 56 19 88 7 31 11 57 7 57 -3 0 -46 -22 -96 -48z"/>
</g>
</svg>
