<svg width="274" height="258" viewBox="0 0 274 258" fill="none" xmlns="http://www.w3.org/2000/svg">
<path d="M161.338 194.73L157.693 191.644L159.259 186.832L155.874 190.594L151.379 188.98L154.853 192.314L153.446 196.9L156.715 193.389L161.338 194.73Z" fill="white"/>
<path d="M162.552 50.9779L158.919 47.8701L160.485 43.0583L157.101 46.8201L152.593 45.2279L156.067 48.5613L154.66 53.1475L157.928 49.6363L162.552 50.9779Z" fill="white"/>
<path d="M174.226 156.358C173.685 156.046 174.172 155.201 174.713 155.514C175.255 155.826 174.767 156.671 174.226 156.358Z" fill="white"/>
<path d="M147.926 44.4104C147.406 44.1104 147.894 43.266 148.414 43.566C148.955 43.8785 148.467 44.7229 147.926 44.4104Z" fill="white"/>
<path d="M60.5595 96.3333C60.0182 96.0208 60.5057 95.1765 61.047 95.489C61.5666 95.789 61.0791 96.6333 60.5595 96.3333Z" fill="white"/>
<path d="M163.855 202.621C163.314 202.308 163.801 201.464 164.342 201.776C164.884 202.089 164.396 202.933 163.855 202.621Z" fill="white"/>
<path d="M244.266 115.044C243.227 114.444 244.165 112.82 245.204 113.42C246.243 114.02 245.306 115.644 244.266 115.044Z" fill="white"/>
<path d="M214.013 134.845L211.712 132.881L212.702 129.815L210.543 132.206L207.691 131.195L209.905 133.31L209.002 136.224L211.074 133.985L214.013 134.845Z" fill="white"/>
<path d="M105.414 76.7928L103.113 74.829L104.103 71.7636L101.944 74.154L99.0798 73.1645L101.294 75.2799L100.391 78.1938L102.463 75.9549L105.414 76.7928Z" fill="white"/>
<path d="M26.2729 161.12L23.9714 159.156L24.9619 156.09L22.8239 158.493L19.9509 157.47L22.1648 159.585L21.2619 162.499L23.3339 160.26L26.2729 161.12Z" fill="white"/>
<path d="M77.7729 30.119L75.4714 28.1551L76.4618 25.0897L74.3239 27.4926L71.4509 26.4689L73.6648 28.5843L72.7619 31.4982L74.8556 29.2718L77.7729 30.119Z" fill="white"/>
<path d="M60.1928 107.12L58.8922 106.022L59.4549 104.298L58.2643 105.66L56.6637 105.082L57.8927 106.254L57.3799 107.892L58.5638 106.641L60.1928 107.12Z" fill="white"/>
<path d="M153.73 181.158C152.691 180.558 153.616 178.956 154.655 179.556C155.673 180.143 154.748 181.745 153.73 181.158Z" fill="white"/>
<path d="M87.8417 77.53C86.8024 76.93 87.7274 75.3278 88.7667 75.9278C89.8059 76.5278 88.8809 78.13 87.8417 77.53Z" fill="white"/>
<path d="M242.714 158.834C241.675 158.234 242.6 156.632 243.639 157.232C244.678 157.832 243.753 159.434 242.714 158.834Z" fill="white"/>
<path d="M199.575 74.9516C198.536 74.3516 199.461 72.7495 200.5 73.3495C201.518 73.937 200.615 75.5516 199.575 74.9516Z" fill="white"/>
<path d="M89.204 32.6196C88.1647 32.0196 89.0897 30.4174 90.129 31.0174C91.1682 31.6174 90.2432 33.2196 89.204 32.6196Z" fill="white"/>
<path d="M239.768 107.885L238.467 106.788L239.018 105.085L237.84 106.426L236.239 105.848L237.455 107.041L236.955 108.657L238.127 107.428L239.768 107.885Z" fill="white"/>
</svg>
