<svg width="252" height="235" viewBox="0 0 252 235" fill="none" xmlns="http://www.w3.org/2000/svg">
<path d="M50.2563 77.6169C49.5851 77.2294 46.8498 75.2171 45.0171 73.8415C46.0434 73.1638 47.08 72.5017 48.1268 71.8552C54.7224 76.7313 58.5869 82.1379 58.5869 82.1379C56.6032 76.3738 54.1469 71.5781 52.7934 69.1224C57.4408 66.5228 62.0865 64.3264 66.2229 62.9618C69.6707 66.5401 70.932 70.9056 70.932 70.9056C71.7458 67.7959 71.0658 63.8237 70.5976 61.7347C72.0036 61.4495 73.3004 61.3033 74.4881 61.2962C90.7149 61.3406 142.894 84.1629 165.799 79.6911C165.799 79.6911 138.646 95.422 107.504 100.161C76.3406 104.888 37.1089 105.389 24.9011 96.2334C20.9883 93.3104 30.6411 83.6414 42.9736 75.2309C45.8808 76.2454 51.0141 78.0544 50.2563 77.6169Z" fill="#FFC727"/>
<path opacity="0.3" d="M50.2563 77.6169C49.5851 77.2294 46.8498 75.2171 45.0171 73.8415C46.0434 73.1638 47.08 72.5017 48.1268 71.8552C54.7224 76.7313 58.5869 82.1379 58.5869 82.1379C56.6032 76.3738 54.1469 71.5781 52.7934 69.1224C57.4408 66.5228 62.0865 64.3264 66.2229 62.9618C69.6707 66.5401 70.932 70.9056 70.932 70.9056C71.7458 67.7959 71.0658 63.8237 70.5976 61.7347C72.0036 61.4495 73.3004 61.3033 74.4881 61.2962C90.7149 61.3406 142.894 84.1629 165.799 79.6911C165.799 79.6911 138.646 95.422 107.504 100.161C76.3406 104.888 37.1089 105.389 24.9011 96.2334C20.9883 93.3104 30.6411 83.6414 42.9736 75.2309C45.8808 76.2454 51.0141 78.0544 50.2563 77.6169Z" fill="black"/>
<path opacity="0.1" d="M87.9203 81.7815C114.203 79.0581 120.752 86.0147 162.997 80.094C163.02 80.0879 163.05 80.086 163.087 80.0882C163.969 79.9619 164.873 79.8295 165.799 79.691C165.799 79.691 138.646 95.4219 107.504 100.161C92.731 102.399 76.1881 103.702 61.553 103.451C32.1456 96.8361 62.5277 84.4127 87.9203 81.7815Z" fill="black"/>
<path d="M24.901 96.2336C37.6237 104.647 66.0323 101.592 92.9224 96.2171C97.5157 98.8113 103.447 100.388 103.447 100.388C101.112 98.9823 98.6523 97.0426 96.7214 95.437C115.074 91.5992 132.305 86.854 142.894 84.1631C153.949 81.3657 167.38 79.1029 180.107 78.1084C179.518 81.5788 177.223 87.9037 177.223 87.9037C180.495 84.3367 182.692 79.8316 183.572 77.8572C186.181 77.6889 188.739 77.6073 191.239 77.5781C190.148 79.5175 188.079 83.2015 186.455 85.8145C184.184 89.4976 176.746 98.2803 176.528 98.5584C176.761 98.4044 183.773 93.9083 188.1 89.5646C191.33 86.3199 196.314 80.5373 198.749 77.6705C208.859 78.1093 217.062 79.9009 221.12 83.5718C231.967 93.3849 231.64 109.651 227.54 121.602C223.406 133.562 210.631 143.94 204.273 144.253C197.902 144.587 178.877 133.69 171.744 130.293C135.532 112.966 75.8528 111.332 48.6087 106.371C31.7691 103.288 25.2066 96.5543 24.901 96.2336Z" fill="#263238"/>
<path d="M24.901 96.2336C37.6237 104.647 66.0323 101.592 92.9224 96.2171C97.5157 98.8113 103.447 100.388 103.447 100.388C101.112 98.9823 98.6523 97.0426 96.7214 95.437C115.074 91.5992 132.305 86.854 142.894 84.1631C153.949 81.3657 167.38 79.1029 180.107 78.1084C179.518 81.5788 177.223 87.9037 177.223 87.9037C180.495 84.3367 182.692 79.8316 183.572 77.8572C186.181 77.6889 188.739 77.6073 191.239 77.5781C190.148 79.5175 188.079 83.2015 186.455 85.8145C184.184 89.4976 176.746 98.2803 176.528 98.5584C176.761 98.4044 183.773 93.9083 188.1 89.5646C191.33 86.3199 196.314 80.5373 198.749 77.6705C208.859 78.1093 217.062 79.9009 221.12 83.5718C231.967 93.3849 231.64 109.651 227.54 121.602C223.406 133.562 210.631 143.94 204.273 144.253C199.115 144.537 185.685 137.447 176.951 132.924C174.888 131.849 173.106 130.935 171.744 130.293C135.532 112.966 75.8528 111.332 48.6087 106.371C31.7691 103.288 25.2066 96.5543 24.901 96.2336Z" fill="#263238"/>
<path opacity="0.2" d="M72.6972 109.597C106.74 110.084 170.918 92.924 186.09 110.546C193.525 119.168 183.813 128.139 176.951 132.925C174.887 131.849 173.105 130.935 171.744 130.294C144.112 117.054 102.814 112.984 72.6972 109.597Z" fill="black"/>
<path d="M192.974 84.3241C195.183 81.847 197.353 79.2891 198.749 77.6705C208.859 78.1093 217.062 79.9009 221.121 83.5719C231.967 93.3849 231.641 109.651 227.541 121.602C223.407 133.562 210.631 143.94 204.273 144.253C199.835 144.49 189.25 139.274 180.819 134.926C183.939 136.323 199.675 143.417 204.776 142.032C207.623 141.251 218.25 134.194 221.872 125.921C225.493 117.649 224.015 97.3093 215.172 90.1255C211.39 87.076 202.895 85.2892 192.974 84.3241Z" fill="#37474F"/>
<path d="M183.572 77.8571C186.181 77.6888 188.739 77.6072 191.239 77.578C190.398 79.0844 188.97 81.6084 187.623 83.8909C185.292 83.7285 182.936 83.6095 180.533 83.5213C182.004 81.2239 183.04 79.0796 183.572 77.8571Z" fill="#37474F"/>
<path d="M142.895 84.1632C153.949 81.3658 167.38 79.1031 180.108 78.1085C179.85 79.6051 179.292 81.6213 178.722 83.4576C163.419 82.9647 148.187 83.6969 142.895 84.1632Z" fill="#37474F"/>
<path d="M180.017 126.265C180.017 126.265 165.241 150.008 163.213 152.619C161.186 155.23 155.105 157.464 155.105 157.464C155.105 157.464 153.592 162.884 152.613 164.079C151.647 165.253 147.697 167.794 147.697 167.794C147.697 167.794 149.087 169.636 148.948 173.077C148.796 176.54 148.746 182.227 149.52 186.687C150.307 191.124 157.162 205.301 162.517 207.325C167.851 209.337 187.879 205.196 189.973 206.52C192.079 207.823 184.566 211.885 176.709 215.144C168.84 218.423 156.116 220.113 152.277 219.311C148.417 218.497 130.74 209.215 127.145 206.042C123.528 202.857 98.2698 169.655 94.383 166.487C90.5053 163.353 87.2962 158.411 87.0858 154.826C86.8754 151.24 87.0508 141.786 87.0288 140.475C86.985 139.15 83.3029 133.878 81.55 130.614C79.797 127.35 73.1615 109.143 73.1615 109.143C73.1615 109.143 136.008 97.9407 156.269 106.896C176.553 115.865 180.017 126.265 180.017 126.265Z" fill="#263238"/>
<g opacity="0.2">
<path d="M155.105 157.464C154.806 155.732 151.138 149.486 147.935 146.684C144.766 143.873 137.561 140.753 136.922 141.509C136.295 142.245 143.763 147.509 147.32 150.198C149.765 152.014 155.105 157.464 155.105 157.464Z" fill="black"/>
<path d="M147.697 167.794C146.115 165.985 144.856 161.766 141.947 159.104C139.05 156.422 134.463 155.217 134.57 156.231C134.655 157.233 147.697 167.794 147.697 167.794Z" fill="black"/>
<path d="M104.222 129.645C110.661 127.993 128.727 130.601 130.098 131.277C131.456 131.975 113.257 132.697 107.989 134.072C102.22 135.562 88.1585 147.969 86.9823 150.956C86.9545 146.754 87.0278 141.427 87.029 140.475C87.0149 140.149 98.035 131.212 104.222 129.645Z" fill="black"/>
</g>
<path d="M87.0858 154.826C89.031 158.807 99.3936 163.808 102.456 165.605C105.539 167.414 126.343 200.73 129.701 203.765C133.024 206.809 150.73 220.092 162.329 218.85C157.945 219.494 154.114 219.679 152.277 219.311C148.417 218.497 130.74 209.215 127.145 206.042C123.528 202.857 98.2699 169.654 94.3831 166.487C90.5054 163.353 87.2962 158.411 87.0858 154.826Z" fill="#37474F"/>
<path d="M163.214 152.619C161.258 155.156 155.471 157.329 155.126 157.476C155.351 157.288 158.602 154.806 161.453 150.419C164.425 145.871 180.017 126.265 180.017 126.265C180.017 126.265 165.241 150.008 163.214 152.619Z" fill="#37474F"/>
<path d="M148.948 173.077C148.796 176.54 148.746 182.227 149.52 186.687C150.306 191.124 157.161 205.301 162.517 207.325C159.497 206.505 149.223 196.301 147.415 187.232C145.641 178.154 148.429 172.576 147.697 167.794C147.78 167.9 149.093 169.726 148.948 173.077Z" fill="#37474F"/>
<path d="M151.664 162.174C152.802 160.003 155.105 157.464 155.105 157.464C155.105 157.464 153.592 162.884 152.613 164.079C151.647 165.253 147.697 167.794 147.697 167.794C147.697 167.794 150.547 164.359 151.664 162.174Z" fill="#37474F"/>
<path d="M180.896 127.292C180.896 127.292 174.42 137.208 174.112 137.492C173.816 137.754 172.696 137.945 172.696 137.945L173.302 136.995C173.302 136.995 171.37 127.191 154.131 121.25C136.879 115.331 98.1387 125.932 79.3027 122.706C78.5931 122.585 78.0168 122.484 77.5006 122.128C77.1234 121.881 71.9194 109.495 71.9194 109.495C71.9194 109.495 96.3276 109.269 116.517 106.549C139.924 103.407 174.233 100.582 180.896 127.292Z" fill="#FFC727"/>
<path opacity="0.4" d="M121.246 105.959C129.167 104.99 137.958 104.263 146.319 104.731L130.604 108.85L147.015 109.175L135.39 111.411L148.892 112.625L138.086 113.892L151.683 115.94L140.074 119.197L147.663 119.854C142.025 119.168 135.27 119.368 128.089 119.956L138.285 117.096L126.317 116.825L131.742 115.079L113.882 114.813L129.279 113.195L117.126 111.346L123.275 110.595L115.398 110.637L130.295 106.536L121.246 105.959Z" fill="white"/>
<path fill-rule="evenodd" clip-rule="evenodd" d="M113.732 106.124L114.715 124.821L112.465 125.167C96.64 127.578 85.7204 127.191 85.2615 127.186L83.7423 127.117L75.1837 109.041L79.0199 108.946C93.6611 108.537 110.899 106.481 111.057 106.456L113.732 106.124ZM109.506 120.543L109.04 111.7C104.169 112.237 93.3731 113.336 82.9862 113.777L86.9829 122.204C90.242 122.209 98.5499 122.07 109.506 120.543Z" fill="#EBEBEB"/>
<path d="M112.123 112.21C113.216 116.017 113.617 119.972 113.85 123.918C111.199 124.61 108.502 125.131 105.779 125.348C103.372 125.518 100.89 125.615 98.5461 124.926C99.7471 124.695 100.874 124.393 102.023 124.104C105.319 123.294 108.967 122.426 112.288 121.774L111.34 123.017C111.287 119.407 111.406 115.751 112.123 112.21Z" fill="white"/>
</svg>
