<svg width="294" height="288" viewBox="0 0 294 288" fill="none" xmlns="http://www.w3.org/2000/svg">
<g opacity="0.5">
<path d="M110.688 90.4473C110.688 90.4473 95.8766 75.4009 96.2874 61.8394C96.8126 44.8798 124.939 50.0626 143.616 61.1633C164.641 73.6481 184.026 89.9211 184.026 89.9211C184.026 89.9211 184.529 75.9507 167.983 57.7088C156.489 45.068 146.968 52.9081 146.968 52.9081C146.968 52.9081 134.13 39.6938 114.736 38.4849C99.974 37.554 72.45 50.877 110.688 90.4473Z" fill="#FFC727"/>
<path d="M144.147 169.694C139.406 164.907 134.426 153.632 140.154 147.21C156.893 128.469 199.489 155.14 212.405 160.519C265.802 182.832 242.959 155.498 242.959 155.498C242.959 155.498 261.834 165.905 256.859 174.522C251.584 183.658 234.586 177.049 207.501 161.411C182.755 147.124 153.81 143.057 145.785 154.358C140.196 162.188 144.147 169.694 144.147 169.694Z" fill="#FFC727"/>
<path d="M96.358 35.668C96.358 35.668 73.7601 42.3087 89.5566 67.2483C89.5566 67.2483 73.8953 51.6244 78.6855 42.7276C83.4757 33.8307 96.358 35.668 96.358 35.668Z" fill="#FFC727"/>
<path d="M177.154 177.175C156.036 201.153 124.465 185.235 104.627 170.144C84.7775 155.076 60.5799 147.687 36.2471 162.333C19.6997 172.294 19.3863 186.287 30.1244 189.138C40.8284 191.998 47.1711 177.762 57.3293 170.867C66.4487 164.672 78.7709 159.979 97.044 170.529C110.771 178.454 119.082 195.608 141.741 197.461C164.413 199.292 177.154 177.175 177.154 177.175Z" fill="#FFC727"/>
<path d="M147.638 46.0488C171.949 36.9908 188.459 60.4947 196.886 78.8989C205.279 97.3122 219.782 111.892 242.811 110.754C258.483 109.959 264.072 100.08 257.497 93.9167C250.889 87.763 240.904 95.508 230.985 96.5367C222.091 97.4925 211.476 96.1273 202.428 81.55C195.636 70.6139 196.306 55.1527 180.791 45.1267C165.262 35.1222 147.638 46.0488 147.638 46.0488Z" fill="#FFC727"/>
<path d="M42.9649 188.497C42.9649 188.497 34.1439 196.625 24.2944 188.485C24.2944 188.485 32.4585 203.245 42.9649 188.497Z" fill="#FFC727"/>
<path d="M137.492 162.07C137.492 162.07 131.677 153.892 138.188 147.115C138.188 147.115 125.353 155.697 137.492 162.07Z" fill="#FFC727"/>
<path d="M127.905 33.8768C126.934 34.7593 125.415 34.6906 124.51 33.7066C123.606 32.7227 123.688 31.182 124.659 30.2994C125.643 29.3952 127.184 29.4765 128.088 30.4604C128.992 31.4443 128.911 32.9851 127.905 33.8768Z" fill="#FFC727"/>
<path d="M233.427 162.408C234.089 161.26 235.557 160.867 236.705 161.529C237.874 162.204 238.268 163.673 237.605 164.82C236.93 165.989 235.462 166.383 234.292 165.708C233.145 165.045 232.752 163.577 233.427 162.408Z" fill="#FFC727"/>
<path d="M43.4677 148.777C44.1427 147.607 45.6112 147.214 46.7587 147.877C47.9278 148.552 48.3213 150.02 47.6463 151.189C46.9838 152.337 45.5153 152.73 44.3462 152.055C43.1987 151.393 42.8052 149.924 43.4677 148.777Z" fill="#FFC727"/>
<path d="M111.793 64.3829C111.295 64.8458 110.513 64.7989 110.085 64.2916C109.643 63.8059 109.678 63.0463 110.163 62.6051C110.662 62.1421 111.421 62.1765 111.884 62.6747C112.313 63.1821 112.278 63.9417 111.793 64.3829Z" fill="#FFC727"/>
<path d="M62.6981 173.418C63.0231 172.855 63.7528 172.642 64.3373 172.979C64.9219 173.317 65.1016 174.055 64.7766 174.618C64.4391 175.203 63.7094 175.417 63.1248 175.079C62.5403 174.742 62.3606 174.003 62.6981 173.418Z" fill="#FFC727"/>
<path d="M138.245 27.8667C138.583 27.2821 139.321 27.1024 139.906 27.4399C140.469 27.7649 140.683 28.4946 140.345 29.0792C140.008 29.6637 139.269 29.8434 138.706 29.5184C138.121 29.1809 137.908 28.4512 138.245 27.8667Z" fill="#FFC727"/>
<path d="M140.822 183.103C141.147 182.54 141.877 182.326 142.461 182.664C143.046 183.001 143.226 183.74 142.901 184.303C142.563 184.888 141.833 185.102 141.249 184.764C140.664 184.427 140.485 183.688 140.822 183.103Z" fill="#FFC727"/>
<path d="M146.713 158.3C147.038 157.737 147.789 157.536 148.373 157.874C148.936 158.199 149.138 158.95 148.813 159.513C148.475 160.097 147.724 160.299 147.161 159.974C146.576 159.636 146.375 158.885 146.713 158.3Z" fill="#FFC727"/>
<path d="M261.962 154.634C262.299 154.049 263.029 153.835 263.614 154.173C264.198 154.51 264.378 155.249 264.04 155.834C263.715 156.396 262.986 156.61 262.401 156.273C261.817 155.935 261.637 155.196 261.962 154.634Z" fill="#FFC727"/>
</g>
</svg>
