<svg width="168" height="40" viewBox="0 0 168 40" fill="none" xmlns="http://www.w3.org/2000/svg">
<path d="M96.742 23.3573C96.6336 25.5211 96.5252 27.6849 96.4163 29.849C96.3923 30.3256 97.7036 30.3253 97.7277 29.849C97.8361 27.6852 97.9445 25.5214 98.0533 23.3573C98.0774 22.8808 96.766 22.881 96.742 23.3573Z" fill="white"/>
<path d="M92.6309 26.3583C96.0189 26.4718 99.4135 26.4941 102.805 26.4247C103.646 26.4074 103.65 25.6671 102.805 25.6844C99.4135 25.7537 96.0189 25.7315 92.6309 25.618C91.7882 25.5898 91.7912 26.3302 92.6309 26.3583Z" fill="white"/>
<path d="M99.4555 24.3228C97.6454 25.2095 95.9604 26.1744 94.4148 27.2085C94.1866 27.3612 94.1495 27.5821 94.4148 27.7319C94.6491 27.8642 95.1124 27.8854 95.3419 27.7319C96.8875 26.6981 98.5725 25.7329 100.383 24.8462C100.65 24.7152 100.62 24.4571 100.383 24.3228C100.117 24.173 99.7239 24.1915 99.4555 24.3228Z" fill="white"/>
<path d="M95.0104 24.626C95.6232 25.3007 96.5057 25.8979 97.2965 26.5075C98.1283 27.1486 98.9601 27.7898 99.7923 28.4312C100.001 28.5921 100.361 28.6723 100.689 28.5639C100.971 28.4709 101.135 28.2197 100.924 28.0575C100.093 27.4164 99.2608 26.7752 98.4286 26.1341C97.6378 25.5245 96.7553 24.9273 96.1425 24.2526C95.7574 23.8284 94.6253 24.2025 95.0104 24.626Z" fill="white"/>
<path d="M120.742 10.3573C120.634 12.5211 120.525 14.6849 120.416 16.849C120.392 17.3256 121.704 17.3253 121.728 16.849C121.836 14.6852 121.944 12.5214 122.053 10.3573C122.077 9.88077 120.766 9.88102 120.742 10.3573Z" fill="white"/>
<path d="M116.631 13.3583C120.019 13.4718 123.413 13.4941 126.805 13.4247C127.646 13.4074 127.65 12.6671 126.805 12.6844C123.413 12.7537 120.019 12.7315 116.631 12.618C115.788 12.5898 115.791 13.3302 116.631 13.3583Z" fill="white"/>
<path d="M123.455 11.3228C121.645 12.2095 119.96 13.1744 118.415 14.2085C118.187 14.3612 118.149 14.5821 118.415 14.7319C118.649 14.8642 119.112 14.8854 119.342 14.7319C120.888 13.6981 122.573 12.7329 124.383 11.8462C124.65 11.7152 124.62 11.4571 124.383 11.3228C124.117 11.173 123.724 11.1915 123.455 11.3228Z" fill="white"/>
<path d="M119.01 11.626C119.623 12.3007 120.506 12.8979 121.296 13.5075C122.128 14.1486 122.96 14.7898 123.792 15.4312C124.001 15.5921 124.361 15.6723 124.689 15.5639C124.971 15.4709 125.135 15.2197 124.924 15.0575C124.093 14.4164 123.261 13.7752 122.429 13.1341C121.638 12.5245 120.755 11.9273 120.142 11.2526C119.757 10.8284 118.625 11.2025 119.01 11.626Z" fill="white"/>
<path d="M-0.945504 18.3573C-1.05391 20.5211 -1.16232 22.6849 -1.27116 24.849C-1.2952 25.3256 0.0161152 25.3253 0.040156 24.849C0.148558 22.6852 0.256971 20.5214 0.36581 18.3573C0.389851 17.8808 -0.921463 17.881 -0.945504 18.3573Z" fill="white"/>
<path d="M-5.05659 21.3583C-1.6686 21.4718 1.72596 21.4941 5.11745 21.4247C5.95888 21.4074 5.96282 20.6671 5.11745 20.6844C1.72596 20.7537 -1.6686 20.7315 -5.05659 20.618C-5.89933 20.5898 -5.89627 21.3302 -5.05659 21.3583Z" fill="white"/>
<path d="M1.768 19.3228C-0.0420542 20.2095 -1.72708 21.1744 -3.27269 22.2085C-3.50086 22.3612 -3.53801 22.5821 -3.27269 22.7319C-3.0384 22.8642 -2.57507 22.8854 -2.34559 22.7319C-0.799985 21.6981 0.885046 20.7329 2.6951 19.8462C2.9626 19.7152 2.93288 19.4571 2.6951 19.3228C2.42977 19.173 2.03638 19.1915 1.768 19.3228Z" fill="white"/>
<path d="M-2.67711 19.626C-2.06429 20.3007 -1.18177 20.8979 -0.391044 21.5075C0.440766 22.1486 1.27257 22.7898 2.10482 23.4312C2.31376 23.5921 2.67393 23.6723 3.00176 23.5639C3.28326 23.4709 3.4476 23.2197 3.23692 23.0575C2.40511 22.4164 1.5733 21.7752 0.741056 21.1341C-0.0496668 20.5245 -0.932186 19.9273 -1.54501 19.2526C-1.9301 18.8284 -3.0622 19.2025 -2.67711 19.626Z" fill="white"/>
<path d="M49.0545 8.35732C48.9461 10.5211 48.8377 12.6849 48.7288 14.849C48.7048 15.3256 50.0161 15.3253 50.0402 14.849C50.1486 12.6852 50.257 10.5214 50.3658 8.35732C50.3899 7.88077 49.0785 7.88102 49.0545 8.35732Z" fill="white"/>
<path d="M44.9434 11.3583C48.3314 11.4718 51.726 11.4941 55.1175 11.4247C55.9589 11.4074 55.9628 10.6671 55.1175 10.6844C51.726 10.7537 48.3314 10.7315 44.9434 10.618C44.1007 10.5898 44.1037 11.3302 44.9434 11.3583Z" fill="white"/>
<path d="M51.768 9.32281C49.9579 10.2095 48.2729 11.1744 46.7273 12.2085C46.4991 12.3612 46.462 12.5821 46.7273 12.7319C46.9616 12.8642 47.4249 12.8854 47.6544 12.7319C49.2 11.6981 50.885 10.7329 52.6951 9.84624C52.9626 9.7152 52.9329 9.45706 52.6951 9.32281C52.4298 9.17301 52.0364 9.19152 51.768 9.32281Z" fill="white"/>
<path d="M47.3229 9.62598C47.9357 10.3007 48.8182 10.8979 49.609 11.5075C50.4408 12.1486 51.2726 12.7898 52.1048 13.4312C52.3138 13.5921 52.6739 13.6723 53.0018 13.5639C53.2833 13.4709 53.4476 13.2197 53.2369 13.0575C52.4051 12.4164 51.5733 11.7752 50.7411 11.1341C49.9503 10.5245 49.0678 9.92731 48.455 9.2526C48.0699 8.82837 46.9378 9.2025 47.3229 9.62598Z" fill="white"/>
<path d="M157.742 30.3573C157.634 32.5211 157.525 34.6849 157.416 36.849C157.392 37.3256 158.704 37.3253 158.728 36.849C158.836 34.6852 158.944 32.5214 159.053 30.3573C159.077 29.8808 157.766 29.881 157.742 30.3573Z" fill="white"/>
<path d="M153.631 33.3583C157.019 33.4718 160.413 33.4941 163.805 33.4247C164.646 33.4074 164.65 32.6671 163.805 32.6844C160.413 32.7537 157.019 32.7315 153.631 32.618C152.788 32.5898 152.791 33.3302 153.631 33.3583Z" fill="white"/>
<path d="M160.455 31.3228C158.645 32.2095 156.96 33.1744 155.415 34.2085C155.187 34.3612 155.149 34.5821 155.415 34.7319C155.649 34.8642 156.112 34.8854 156.342 34.7319C157.888 33.6981 159.573 32.7329 161.383 31.8462C161.65 31.7152 161.62 31.4571 161.383 31.3228C161.117 31.173 160.724 31.1915 160.455 31.3228Z" fill="white"/>
<path d="M156.01 31.626C156.623 32.3007 157.506 32.8979 158.296 33.5075C159.128 34.1486 159.96 34.7898 160.792 35.4312C161.001 35.5921 161.361 35.6723 161.689 35.5639C161.971 35.4709 162.135 35.2197 161.924 35.0575C161.093 34.4164 160.261 33.7752 159.429 33.1341C158.638 32.5245 157.755 31.9273 157.142 31.2526C156.757 30.8284 155.625 31.2025 156.01 31.626Z" fill="white"/>
</svg>
