<svg width="94" height="112" viewBox="0 0 94 112" fill="none" xmlns="http://www.w3.org/2000/svg">
<path d="M48.4354 32C50.1229 32.0045 50.9794 32.0135 51.7189 32.0345L52.0099 32.045C52.3459 32.057 52.6774 32.072 53.0779 32.09C54.6739 32.165 55.7629 32.417 56.7184 32.7875C57.7084 33.1685 58.5424 33.6845 59.3764 34.517C60.1392 35.2668 60.7294 36.1739 61.1059 37.175C61.4764 38.1305 61.7284 39.2195 61.8034 40.817C61.8214 41.216 61.8364 41.5475 61.8484 41.885L61.8574 42.176C61.8799 42.914 61.8889 43.7705 61.8919 45.458L61.8934 46.577V48.542C61.8971 49.6361 61.8856 50.7302 61.8589 51.824L61.8499 52.115C61.8379 52.4525 61.8229 52.784 61.8049 53.183C61.7299 54.7805 61.4749 55.868 61.1059 56.825C60.7305 57.8267 60.1401 58.7339 59.3764 59.483C58.6264 60.2455 57.7194 60.8356 56.7184 61.2125C55.7629 61.583 54.6739 61.835 53.0779 61.91C52.722 61.9268 52.366 61.9418 52.0099 61.955L51.7189 61.964C50.9794 61.985 50.1229 61.9955 48.4354 61.9985L47.3164 62H45.3529C44.2583 62.0038 43.1637 61.9923 42.0694 61.9655L41.7784 61.9565C41.4224 61.943 41.0664 61.9275 40.7104 61.91C39.1144 61.835 38.0254 61.583 37.0684 61.2125C36.0674 60.8366 35.1608 60.2463 34.4119 59.483C33.6485 58.7334 33.0578 57.8263 32.6809 56.825C32.3104 55.8695 32.0584 54.7805 31.9834 53.183C31.9667 52.8271 31.9517 52.4711 31.9384 52.115L31.9309 51.824C31.9033 50.7302 31.8908 49.6361 31.8934 48.542V45.458C31.8893 44.3639 31.9003 43.2698 31.9264 42.176L31.9369 41.885C31.9489 41.5475 31.9639 41.216 31.9819 40.817C32.0569 39.2195 32.3089 38.132 32.6794 37.175C33.0561 36.1729 33.648 35.2655 34.4134 34.517C35.1621 33.7542 36.0682 33.164 37.0684 32.7875C38.0254 32.417 39.1129 32.165 40.7104 32.09C41.1094 32.072 41.4424 32.057 41.7784 32.045L42.0694 32.036C43.1632 32.0093 44.2573 31.9978 45.3514 32.0015L48.4354 32ZM46.8934 39.5C44.9043 39.5 42.9967 40.2902 41.5901 41.6967C40.1836 43.1032 39.3934 45.0109 39.3934 47C39.3934 48.9891 40.1836 50.8968 41.5901 52.3033C42.9967 53.7098 44.9043 54.5 46.8934 54.5C48.8826 54.5 50.7902 53.7098 52.1967 52.3033C53.6033 50.8968 54.3934 48.9891 54.3934 47C54.3934 45.0109 53.6033 43.1032 52.1967 41.6967C50.7902 40.2902 48.8826 39.5 46.8934 39.5ZM46.8934 42.5C47.4844 42.4999 48.0696 42.6162 48.6156 42.8423C49.1616 43.0683 49.6577 43.3997 50.0756 43.8175C50.4936 44.2353 50.8251 44.7313 51.0514 45.2772C51.2776 45.8232 51.3941 46.4083 51.3942 46.9993C51.3943 47.5902 51.278 48.1754 51.0519 48.7214C50.8259 49.2674 50.4945 49.7635 50.0767 50.1814C49.6589 50.5994 49.1629 50.9309 48.617 51.1572C48.071 51.3834 47.4859 51.4999 46.8949 51.5C45.7015 51.5 44.5569 51.0259 43.713 50.182C42.869 49.3381 42.3949 48.1935 42.3949 47C42.3949 45.8065 42.869 44.6619 43.713 43.818C44.5569 42.9741 45.7015 42.5 46.8949 42.5M54.7699 37.25C54.2727 37.25 53.7957 37.4475 53.4441 37.7992C53.0925 38.1508 52.8949 38.6277 52.8949 39.125C52.8949 39.6223 53.0925 40.0992 53.4441 40.4508C53.7957 40.8025 54.2727 41 54.7699 41C55.2672 41 55.7441 40.8025 56.0958 40.4508C56.4474 40.0992 56.6449 39.6223 56.6449 39.125C56.6449 38.6277 56.4474 38.1508 56.0958 37.7992C55.7441 37.4475 55.2672 37.25 54.7699 37.25Z" fill="white"/>
<path fill-rule="evenodd" clip-rule="evenodd" d="M93.1066 47C93.1066 59 88.6066 71.1 80.2066 79.9C71.9066 88.8 59.5066 94 47.3066 93.8C41.2066 93.6 35.1066 92.3 29.5066 89.9C24.0066 87.4 18.9066 83.9 14.7066 79.6C6.20657 71.1 1.10657 59.2 0.906572 47C0.606572 34.9 5.50657 22.6 14.1066 13.9C18.4066 9.5 23.6066 6 29.3066 3.6C35.0066 1.2 41.1066 0 47.3066 0C53.4066 0 59.6066 1.2 65.3066 3.7C70.9066 6.1 76.0066 9.7 80.2066 14.1C88.6066 23 93.1066 35 93.1066 47ZM92.8066 47C92.9066 35 87.6066 23.3 79.0066 15.3C70.4066 7.3 58.9066 2.6 47.3066 2.7C35.7066 2.7 24.2066 7.4 15.9066 15.6C7.50657 23.8 2.60657 35.2 2.30657 47C2.10657 58.8 6.80657 70.7 15.3066 79C23.7066 87.4 35.7066 91.8 47.3066 91.6C59.0066 91.4 70.5066 86.8 79.0066 78.7C87.6066 70.7 92.9066 59 92.8066 47Z" fill="white"/>
<path d="M13.3936 78L6.89355 102C34.4936 118.8 73.3936 109 89.3936 102L81.8936 78C54.6936 106.4 24.8936 89.8333 13.3936 78Z" stroke="white"/>
</svg>
