<svg width="93" height="112" viewBox="0 0 93 112" fill="none" xmlns="http://www.w3.org/2000/svg">
<path fill-rule="evenodd" clip-rule="evenodd" d="M92.213 47C92.213 59 87.713 71.1 79.313 79.9C71.013 88.8 58.613 94 46.413 93.8C40.313 93.6 34.213 92.3 28.613 89.9C23.113 87.4 18.013 83.9 13.813 79.6C5.31302 71.1 0.213017 59.2 0.013017 47C-0.286983 34.9 4.61302 22.6 13.213 13.9C17.513 9.5 22.713 6 28.413 3.6C34.113 1.2 40.213 0 46.413 0C52.513 0 58.713 1.2 64.413 3.7C70.013 6.1 75.113 9.7 79.313 14.1C87.713 23 92.213 35 92.213 47ZM91.913 47C92.013 35 86.713 23.3 78.113 15.3C69.513 7.3 58.013 2.6 46.413 2.7C34.813 2.7 23.313 7.4 15.013 15.6C6.61302 23.8 1.71302 35.2 1.41302 47C1.21302 58.8 5.91302 70.7 14.413 79C22.813 87.4 34.813 91.8 46.413 91.6C58.113 91.4 69.613 86.8 78.113 78.7C86.713 70.7 92.013 59 91.913 47Z" fill="white"/>
<path d="M12.5 78L6 102C33.6 118.8 72.5 109 88.5 102L81 78C53.8 106.4 24 89.8333 12.5 78Z" stroke="white"/>
<path fill-rule="evenodd" clip-rule="evenodd" d="M46 35C47.2825 35 48.598 35.033 49.873 35.087L51.379 35.159L52.8205 35.2445L54.1705 35.336L55.4035 35.432C56.7416 35.5344 58.0007 36.1054 58.9593 37.0446C59.9179 37.9837 60.5146 39.2308 60.6445 40.5665L60.7045 41.204L60.817 42.569C60.922 43.9835 61 45.5255 61 47C61 48.4745 60.922 50.0165 60.817 51.431L60.7045 52.796C60.685 53.015 60.6655 53.2265 60.6445 53.4335C60.5146 54.7694 59.9176 56.0167 58.9587 56.9559C57.9998 57.8951 56.7403 58.4659 55.402 58.568L54.172 58.6625L52.822 58.7555L51.379 58.841L49.873 58.913C48.5828 58.9691 47.2915 58.9981 46 59C44.7085 58.9981 43.4173 58.9691 42.127 58.913L40.621 58.841L39.1795 58.7555L37.8295 58.6625L36.5965 58.568C35.2584 58.4656 33.9993 57.8946 33.0407 56.9554C32.0821 56.0163 31.4854 54.7692 31.3555 53.4335L31.2955 52.796L31.183 51.431C31.0683 49.9567 31.0073 48.4787 31 47C31 45.5255 31.078 43.9835 31.183 42.569L31.2955 41.204C31.315 40.985 31.3345 40.7735 31.3555 40.5665C31.4853 39.231 32.0818 37.9841 33.0401 37.045C33.9985 36.1059 35.2572 35.5348 36.595 35.432L37.8265 35.336L39.1765 35.2445L40.6195 35.159L42.1255 35.087C43.4163 35.0309 44.708 35.0019 46 35ZM43 43.3625V50.6375C43 51.3305 43.75 51.7625 44.35 51.4175L50.65 47.78C50.7871 47.7011 50.901 47.5874 50.9801 47.4505C51.0593 47.3136 51.101 47.1582 51.101 47C51.101 46.8418 51.0593 46.6864 50.9801 46.5495C50.901 46.4126 50.7871 46.2989 50.65 46.22L44.35 42.584C44.2131 42.505 44.0579 42.4634 43.8999 42.4634C43.7418 42.4634 43.5866 42.5051 43.4497 42.5841C43.3129 42.6632 43.1993 42.7769 43.1204 42.9138C43.0414 43.0507 42.9999 43.206 43 43.364V43.3625Z" fill="white"/>
</svg>
