<svg width="93" height="112" viewBox="0 0 93 112" fill="none" xmlns="http://www.w3.org/2000/svg">
<path fill-rule="evenodd" clip-rule="evenodd" d="M92.213 47C92.213 59 87.713 71.1 79.313 79.9C71.013 88.8 58.613 94 46.413 93.8C40.313 93.6 34.213 92.3 28.613 89.9C23.113 87.4 18.013 83.9 13.813 79.6C5.31302 71.1 0.213017 59.2 0.013017 47C-0.286983 34.9 4.61302 22.6 13.213 13.9C17.513 9.5 22.713 6 28.413 3.6C34.113 1.2 40.213 0 46.413 0C52.513 0 58.713 1.2 64.413 3.7C70.013 6.1 75.113 9.7 79.313 14.1C87.713 23 92.213 35 92.213 47ZM91.913 47C92.013 35 86.713 23.3 78.113 15.3C69.513 7.3 58.013 2.6 46.413 2.7C34.813 2.7 23.313 7.4 15.013 15.6C6.61302 23.8 1.71302 35.2 1.41302 47C1.21302 58.8 5.91302 70.7 14.413 79C22.813 87.4 34.813 91.8 46.413 91.6C58.113 91.4 69.613 86.8 78.113 78.7C86.713 70.7 92.013 59 91.913 47Z" fill="white"/>
<path d="M12.5 78L6 102C33.6 118.8 72.5 109 88.5 102L81 78C53.8 106.4 24 89.8333 12.5 78Z" stroke="white"/>
<path d="M47 33.875C39.7438 33.875 33.875 39.7812 33.875 47.075C33.875 53.6562 38.675 59.1313 44.9562 60.125V50.9H41.6188V47.075H44.9562V44.1687C44.9562 40.85 46.925 39.0312 49.9062 39.0312C51.35 39.0312 52.85 39.2938 52.85 39.2938V42.5375H51.2C49.5687 42.5375 49.0625 43.55 49.0625 44.6V47.075H52.7L52.1187 50.9H49.0625V60.125C55.3438 59.1313 60.1438 53.675 60.1438 47.075C60.1438 39.7812 54.275 33.875 47.0188 33.875H47Z" fill="white"/>
</svg>
