<svg width="94" height="112" viewBox="0 0 94 112" fill="none" xmlns="http://www.w3.org/2000/svg">
<path d="M48.4356 32C50.1231 32.0045 50.9796 32.0135 51.7191 32.0345L52.0101 32.045C52.3461 32.057 52.6775 32.072 53.078 32.09C54.674 32.165 55.7631 32.417 56.7186 32.7875C57.7086 33.1685 58.5426 33.6845 59.3766 34.517C60.1393 35.2668 60.7295 36.1739 61.1061 37.175C61.4766 38.1305 61.7286 39.2195 61.8036 40.817C61.8216 41.216 61.8366 41.5475 61.8486 41.885L61.8576 42.176C61.8801 42.914 61.8891 43.7705 61.8921 45.458L61.8936 46.577V48.542C61.8972 49.6361 61.8857 50.7302 61.8591 51.824L61.8501 52.115C61.8381 52.4525 61.8231 52.784 61.8051 53.183C61.7301 54.7805 61.4751 55.868 61.1061 56.825C60.7306 57.8267 60.1402 58.7339 59.3766 59.483C58.6265 60.2455 57.7195 60.8356 56.7186 61.2125C55.7631 61.583 54.674 61.835 53.078 61.91C52.7221 61.9268 52.3661 61.9418 52.0101 61.955L51.7191 61.964C50.9796 61.985 50.1231 61.9955 48.4356 61.9985L47.3165 62H45.353C44.2584 62.0038 43.1638 61.9923 42.0696 61.9655L41.7786 61.9565C41.4225 61.943 41.0665 61.9275 40.7106 61.91C39.1146 61.835 38.0256 61.583 37.0686 61.2125C36.0676 60.8366 35.1609 60.2463 34.4121 59.483C33.6486 58.7334 33.0579 57.8263 32.6811 56.825C32.3106 55.8695 32.0586 54.7805 31.9836 53.183C31.9668 52.8271 31.9518 52.4711 31.9386 52.115L31.9311 51.824C31.9034 50.7302 31.8909 49.6361 31.8936 48.542V45.458C31.8894 44.3639 31.9004 43.2698 31.9266 42.176L31.9371 41.885C31.9491 41.5475 31.9641 41.216 31.9821 40.817C32.0571 39.2195 32.3091 38.132 32.6796 37.175C33.0562 36.1729 33.6481 35.2655 34.4136 34.517C35.1622 33.7542 36.0683 33.164 37.0686 32.7875C38.0256 32.417 39.113 32.165 40.7106 32.09C41.1096 32.072 41.4426 32.057 41.7786 32.045L42.0696 32.036C43.1633 32.0093 44.2574 31.9978 45.3516 32.0015L48.4356 32ZM46.8936 39.5C44.9044 39.5 42.9968 40.2902 41.5902 41.6967C40.1837 43.1032 39.3936 45.0109 39.3936 47C39.3936 48.9891 40.1837 50.8968 41.5902 52.3033C42.9968 53.7098 44.9044 54.5 46.8936 54.5C48.8827 54.5 50.7903 53.7098 52.1969 52.3033C53.6034 50.8968 54.3936 48.9891 54.3936 47C54.3936 45.0109 53.6034 43.1032 52.1969 41.6967C50.7903 40.2902 48.8827 39.5 46.8936 39.5ZM46.8936 42.5C47.4845 42.4999 48.0697 42.6162 48.6157 42.8423C49.1617 43.0683 49.6578 43.3997 50.0758 43.8175C50.4937 44.2353 50.8252 44.7313 51.0515 45.2772C51.2777 45.8232 51.3942 46.4083 51.3943 46.9993C51.3944 47.5902 51.2781 48.1754 51.052 48.7214C50.826 49.2674 50.4946 49.7635 50.0768 50.1815C49.659 50.5994 49.163 50.9309 48.6171 51.1572C48.0711 51.3834 47.486 51.4999 46.8951 51.5C45.7016 51.5 44.557 51.0259 43.7131 50.182C42.8692 49.3381 42.3951 48.1935 42.3951 47C42.3951 45.8065 42.8692 44.6619 43.7131 43.818C44.557 42.9741 45.7016 42.5 46.8951 42.5M54.77 37.25C54.2728 37.25 53.7959 37.4475 53.4442 37.7992C53.0926 38.1508 52.895 38.6277 52.895 39.125C52.895 39.6223 53.0926 40.0992 53.4442 40.4508C53.7959 40.8025 54.2728 41 54.77 41C55.2673 41 55.7442 40.8025 56.0959 40.4508C56.4475 40.0992 56.6451 39.6223 56.6451 39.125C56.6451 38.6277 56.4475 38.1508 56.0959 37.7992C55.7442 37.4475 55.2673 37.25 54.77 37.25Z" fill="white" fill-opacity="0.7"/>
<path fill-rule="evenodd" clip-rule="evenodd" d="M93.1066 47C93.1066 59 88.6066 71.1 80.2066 79.9C71.9066 88.8 59.5066 94 47.3066 93.8C41.2066 93.6 35.1066 92.3 29.5066 89.9C24.0066 87.4 18.9066 83.9 14.7066 79.6C6.20657 71.1 1.10657 59.2 0.906572 47C0.606572 34.9 5.50657 22.6 14.1066 13.9C18.4066 9.5 23.6066 6 29.3066 3.6C35.0066 1.2 41.1066 0 47.3066 0C53.4066 0 59.6066 1.2 65.3066 3.7C70.9066 6.1 76.0066 9.7 80.2066 14.1C88.6066 23 93.1066 35 93.1066 47ZM92.8066 47C92.9066 35 87.6066 23.3 79.0066 15.3C70.4066 7.3 58.9066 2.6 47.3066 2.7C35.7066 2.7 24.2066 7.4 15.9066 15.6C7.50657 23.8 2.60657 35.2 2.30657 47C2.10657 58.8 6.80657 70.7 15.3066 79C23.7066 87.4 35.7066 91.8 47.3066 91.6C59.0066 91.4 70.5066 86.8 79.0066 78.7C87.6066 70.7 92.9066 59 92.8066 47Z" fill="white" fill-opacity="0.7"/>
<path d="M13.3936 78L6.89355 102C34.4936 118.8 73.3936 109 89.3936 102L81.8936 78C54.6936 106.4 24.8936 89.8333 13.3936 78Z" stroke="white" stroke-opacity="0.7"/>
<g filter="url(#filter0_f_595_1918)">
<path d="M48.5429 32C50.2304 32.0045 51.0869 32.0135 51.8264 32.0345L52.1174 32.045C52.4534 32.057 52.7849 32.072 53.1854 32.09C54.7814 32.165 55.8704 32.417 56.8259 32.7875C57.8159 33.1685 58.6499 33.6845 59.4839 34.517C60.2466 35.2668 60.8368 36.1739 61.2134 37.175C61.5839 38.1305 61.8359 39.2195 61.9109 40.817C61.9289 41.216 61.9439 41.5475 61.9559 41.885L61.9649 42.176C61.9874 42.914 61.9964 43.7705 61.9994 45.458L62.0009 46.577V48.542C62.0046 49.6361 61.993 50.7302 61.9664 51.824L61.9574 52.115C61.9454 52.4525 61.9304 52.784 61.9124 53.183C61.8374 54.7805 61.5824 55.868 61.2134 56.825C60.8379 57.8267 60.2475 58.7339 59.4839 59.483C58.7338 60.2455 57.8268 60.8356 56.8259 61.2125C55.8704 61.583 54.7814 61.835 53.1854 61.91C52.8294 61.9268 52.4734 61.9418 52.1174 61.955L51.8264 61.964C51.0869 61.985 50.2304 61.9955 48.5429 61.9985L47.4239 62H45.4604C44.3658 62.0038 43.2712 61.9923 42.1769 61.9655L41.8859 61.9565C41.5298 61.943 41.1738 61.9275 40.8179 61.91C39.2219 61.835 38.1329 61.583 37.1759 61.2125C36.1749 60.8366 35.2682 60.2463 34.5194 59.483C33.7559 58.7334 33.1652 57.8263 32.7884 56.825C32.4179 55.8695 32.1659 54.7805 32.0909 53.183C32.0742 52.8271 32.0592 52.4711 32.0459 52.115L32.0384 51.824C32.0107 50.7302 31.9982 49.6361 32.0009 48.542V45.458C31.9967 44.3639 32.0077 43.2698 32.0339 42.176L32.0444 41.885C32.0564 41.5475 32.0714 41.216 32.0894 40.817C32.1644 39.2195 32.4164 38.132 32.7869 37.175C33.1635 36.1729 33.7554 35.2655 34.5209 34.517C35.2695 33.7542 36.1756 33.164 37.1759 32.7875C38.1329 32.417 39.2204 32.165 40.8179 32.09C41.2169 32.072 41.5499 32.057 41.8859 32.045L42.1769 32.036C43.2707 32.0093 44.3648 31.9978 45.4589 32.0015L48.5429 32ZM47.0009 39.5C45.0117 39.5 43.1041 40.2902 41.6976 41.6967C40.291 43.1032 39.5009 45.0109 39.5009 47C39.5009 48.9891 40.291 50.8968 41.6976 52.3033C43.1041 53.7098 45.0117 54.5 47.0009 54.5C48.99 54.5 50.8976 53.7098 52.3042 52.3033C53.7107 50.8968 54.5009 48.9891 54.5009 47C54.5009 45.0109 53.7107 43.1032 52.3042 41.6967C50.8976 40.2902 48.99 39.5 47.0009 39.5ZM47.0009 42.5C47.5918 42.4999 48.177 42.6162 48.723 42.8423C49.269 43.0683 49.7651 43.3997 50.1831 43.8175C50.601 44.2353 50.9325 44.7313 51.1588 45.2772C51.385 45.8232 51.5015 46.4083 51.5016 46.9993C51.5017 47.5902 51.3854 48.1754 51.1594 48.7214C50.9333 49.2674 50.6019 49.7635 50.1841 50.1815C49.7663 50.5994 49.2703 50.9309 48.7244 51.1572C48.1785 51.3834 47.5933 51.4999 47.0024 51.5C45.8089 51.5 44.6643 51.0259 43.8204 50.182C42.9765 49.3381 42.5024 48.1935 42.5024 47C42.5024 45.8065 42.9765 44.6619 43.8204 43.818C44.6643 42.9741 45.8089 42.5 47.0024 42.5M54.8774 37.25C54.3801 37.25 53.9032 37.4475 53.5515 37.7992C53.1999 38.1508 53.0024 38.6277 53.0024 39.125C53.0024 39.6223 53.1999 40.0992 53.5515 40.4508C53.9032 40.8025 54.3801 41 54.8774 41C55.3746 41 55.8516 40.8025 56.2032 40.4508C56.5548 40.0992 56.7524 39.6223 56.7524 39.125C56.7524 38.6277 56.5548 38.1508 56.2032 37.7992C55.8516 37.4475 55.3746 37.25 54.8774 37.25Z" fill="white"/>
</g>
<defs>
<filter id="filter0_f_595_1918" x="31" y="31" width="32.0015" height="32.0005" filterUnits="userSpaceOnUse" color-interpolation-filters="sRGB">
<feFlood flood-opacity="0" result="BackgroundImageFix"/>
<feBlend mode="normal" in="SourceGraphic" in2="BackgroundImageFix" result="shape"/>
<feGaussianBlur stdDeviation="0.5" result="effect1_foregroundBlur_595_1918"/>
</filter>
</defs>
</svg>
