<svg width="122" height="140" viewBox="0 0 122 140" fill="none" xmlns="http://www.w3.org/2000/svg">
<g filter="url(#filter0_d_487_2872)">
<path fill-rule="evenodd" clip-rule="evenodd" d="M107.107 61C107.107 73 102.607 85.1 94.2066 93.9C85.9066 102.8 73.5066 108 61.3066 107.8C55.2066 107.6 49.1066 106.3 43.5066 103.9C38.0066 101.4 32.9066 97.9 28.7066 93.6C20.2066 85.1 15.1066 73.2 14.9066 61C14.6066 48.9 19.5066 36.6 28.1066 27.9C32.4066 23.5 37.6066 20 43.3066 17.6C49.0066 15.2 55.1066 14 61.3066 14C67.4066 14 73.6066 15.2 79.3066 17.7C84.9066 20.1 90.0066 23.7 94.2066 28.1C102.607 37 107.107 49 107.107 61ZM106.807 61C106.907 49 101.607 37.3 93.0066 29.3C84.4066 21.3 72.9066 16.6 61.3066 16.7C49.7066 16.7 38.2066 21.4 29.9066 29.6C21.5066 37.8 16.6066 49.2 16.3066 61C16.1066 72.8 20.8066 84.7 29.3066 93C37.7066 101.4 49.7066 105.8 61.3066 105.6C73.0066 105.4 84.5066 100.8 93.0066 92.7C101.607 84.7 106.907 73 106.807 61Z" fill="#C59D2C" fill-opacity="0.7" shape-rendering="crispEdges"/>
</g>
<g filter="url(#filter1_d_487_2872)">
<path d="M27.3936 92L20.8936 116C48.4936 132.8 87.3936 123 103.394 116L95.8936 92C68.6936 120.4 38.8936 103.833 27.3936 92Z" stroke="#C59D2C" stroke-opacity="0.7" shape-rendering="crispEdges"/>
</g>
<g clip-path="url(#clip0_487_2872)">
<path d="M61 47.875C53.7438 47.875 47.875 53.7812 47.875 61.075C47.875 67.6562 52.675 73.1313 58.9562 74.125V64.9H55.6188V61.075H58.9562V58.1687C58.9562 54.85 60.925 53.0312 63.9063 53.0312C65.35 53.0312 66.85 53.2938 66.85 53.2938V56.5375H65.2C63.5687 56.5375 63.0625 57.55 63.0625 58.6V61.075H66.7L66.1187 64.9H63.0625V74.125C69.3438 73.1313 74.1438 67.675 74.1438 61.075C74.1438 53.7812 68.275 47.875 61.0188 47.875H61Z" fill="#FFC727" fill-opacity="0.7"/>
<g filter="url(#filter2_f_487_2872)">
<path d="M61 47.875C53.7438 47.875 47.875 53.7812 47.875 61.075C47.875 67.6562 52.675 73.1313 58.9562 74.125V64.9H55.6188V61.075H58.9562V58.1687C58.9562 54.85 60.925 53.0312 63.9063 53.0312C65.35 53.0312 66.85 53.2938 66.85 53.2938V56.5375H65.2C63.5687 56.5375 63.0625 57.55 63.0625 58.6V61.075H66.7L66.1187 64.9H63.0625V74.125C69.3438 73.1313 74.1438 67.675 74.1438 61.075C74.1438 53.7812 68.275 47.875 61.0188 47.875H61Z" fill="#FFC727"/>
</g>
</g>
<defs>
<filter id="filter0_d_487_2872" x="0.893555" y="0" width="120.213" height="121.806" filterUnits="userSpaceOnUse" color-interpolation-filters="sRGB">
<feFlood flood-opacity="0" result="BackgroundImageFix"/>
<feColorMatrix in="SourceAlpha" type="matrix" values="0 0 0 0 0 0 0 0 0 0 0 0 0 0 0 0 0 0 127 0" result="hardAlpha"/>
<feOffset/>
<feGaussianBlur stdDeviation="7"/>
<feComposite in2="hardAlpha" operator="out"/>
<feColorMatrix type="matrix" values="0 0 0 0 1 0 0 0 0 0.745098 0 0 0 0 0.290196 0 0 0 1 0"/>
<feBlend mode="normal" in2="BackgroundImageFix" result="effect1_dropShadow_487_2872"/>
<feBlend mode="normal" in="SourceGraphic" in2="effect1_dropShadow_487_2872" result="shape"/>
</filter>
<filter id="filter1_d_487_2872" x="6.31299" y="77.022" width="111.691" height="62.7539" filterUnits="userSpaceOnUse" color-interpolation-filters="sRGB">
<feFlood flood-opacity="0" result="BackgroundImageFix"/>
<feColorMatrix in="SourceAlpha" type="matrix" values="0 0 0 0 0 0 0 0 0 0 0 0 0 0 0 0 0 0 127 0" result="hardAlpha"/>
<feOffset/>
<feGaussianBlur stdDeviation="7"/>
<feComposite in2="hardAlpha" operator="out"/>
<feColorMatrix type="matrix" values="0 0 0 0 1 0 0 0 0 0.745098 0 0 0 0 0.290196 0 0 0 1 0"/>
<feBlend mode="normal" in2="BackgroundImageFix" result="effect1_dropShadow_487_2872"/>
<feBlend mode="normal" in="SourceGraphic" in2="effect1_dropShadow_487_2872" result="shape"/>
</filter>
<filter id="filter2_f_487_2872" x="46.875" y="46.875" width="28.2686" height="28.25" filterUnits="userSpaceOnUse" color-interpolation-filters="sRGB">
<feFlood flood-opacity="0" result="BackgroundImageFix"/>
<feBlend mode="normal" in="SourceGraphic" in2="BackgroundImageFix" result="shape"/>
<feGaussianBlur stdDeviation="0.5" result="effect1_foregroundBlur_487_2872"/>
</filter>
<clipPath id="clip0_487_2872">
<rect width="30" height="30" fill="white" transform="translate(46 46)"/>
</clipPath>
</defs>
</svg>
