<svg width="122" height="140" viewBox="0 0 122 140" fill="none" xmlns="http://www.w3.org/2000/svg">
<path d="M62.4354 46C64.1229 46.0045 64.9794 46.0135 65.7189 46.0345L66.0099 46.045C66.3459 46.057 66.6774 46.072 67.0779 46.09C68.6739 46.165 69.7629 46.417 70.7184 46.7875C71.7084 47.1685 72.5424 47.6845 73.3764 48.517C74.1392 49.2668 74.7294 50.1739 75.1059 51.175C75.4764 52.1305 75.7284 53.2195 75.8034 54.817C75.8214 55.216 75.8364 55.5475 75.8484 55.885L75.8574 56.176C75.8799 56.914 75.8889 57.7705 75.8919 59.458L75.8934 60.577V62.542C75.8971 63.6361 75.8856 64.7302 75.8589 65.824L75.8499 66.115C75.8379 66.4525 75.8229 66.784 75.8049 67.183C75.7299 68.7805 75.4749 69.868 75.1059 70.825C74.7305 71.8267 74.1401 72.7339 73.3764 73.483C72.6264 74.2455 71.7194 74.8356 70.7184 75.2125C69.7629 75.583 68.6739 75.835 67.0779 75.91C66.722 75.9268 66.366 75.9418 66.0099 75.955L65.7189 75.964C64.9794 75.985 64.1229 75.9955 62.4354 75.9985L61.3164 76H59.3529C58.2583 76.0038 57.1637 75.9923 56.0694 75.9655L55.7784 75.9565C55.4224 75.943 55.0664 75.9275 54.7104 75.91C53.1144 75.835 52.0254 75.583 51.0684 75.2125C50.0674 74.8366 49.1608 74.2463 48.4119 73.483C47.6485 72.7334 47.0578 71.8263 46.6809 70.825C46.3104 69.8695 46.0584 68.7805 45.9834 67.183C45.9667 66.8271 45.9517 66.4711 45.9384 66.115L45.9309 65.824C45.9033 64.7302 45.8908 63.6361 45.8934 62.542V59.458C45.8893 58.3639 45.9003 57.2698 45.9264 56.176L45.9369 55.885C45.9489 55.5475 45.9639 55.216 45.9819 54.817C46.0569 53.2195 46.3089 52.132 46.6794 51.175C47.0561 50.1729 47.648 49.2655 48.4134 48.517C49.1621 47.7542 50.0682 47.164 51.0684 46.7875C52.0254 46.417 53.1129 46.165 54.7104 46.09C55.1094 46.072 55.4424 46.057 55.7784 46.045L56.0694 46.036C57.1632 46.0093 58.2573 45.9978 59.3514 46.0015L62.4354 46ZM60.8934 53.5C58.9043 53.5 56.9967 54.2902 55.5901 55.6967C54.1836 57.1032 53.3934 59.0109 53.3934 61C53.3934 62.9891 54.1836 64.8968 55.5901 66.3033C56.9967 67.7098 58.9043 68.5 60.8934 68.5C62.8826 68.5 64.7902 67.7098 66.1967 66.3033C67.6033 64.8968 68.3934 62.9891 68.3934 61C68.3934 59.0109 67.6033 57.1032 66.1967 55.6967C64.7902 54.2902 62.8826 53.5 60.8934 53.5ZM60.8934 56.5C61.4844 56.4999 62.0696 56.6162 62.6156 56.8423C63.1616 57.0683 63.6577 57.3997 64.0756 57.8175C64.4936 58.2353 64.8251 58.7313 65.0514 59.2772C65.2776 59.8232 65.3941 60.4083 65.3942 60.9993C65.3943 61.5902 65.278 62.1754 65.0519 62.7214C64.8259 63.2674 64.4945 63.7635 64.0767 64.1815C63.6589 64.5994 63.1629 64.9309 62.617 65.1572C62.071 65.3834 61.4859 65.4999 60.8949 65.5C59.7015 65.5 58.5569 65.0259 57.713 64.182C56.869 63.3381 56.3949 62.1935 56.3949 61C56.3949 59.8065 56.869 58.6619 57.713 57.818C58.5569 56.9741 59.7015 56.5 60.8949 56.5M68.7699 51.25C68.2727 51.25 67.7957 51.4475 67.4441 51.7992C67.0925 52.1508 66.8949 52.6277 66.8949 53.125C66.8949 53.6223 67.0925 54.0992 67.4441 54.4508C67.7957 54.8025 68.2727 55 68.7699 55C69.2672 55 69.7441 54.8025 70.0958 54.4508C70.4474 54.0992 70.6449 53.6223 70.6449 53.125C70.6449 52.6277 70.4474 52.1508 70.0958 51.7992C69.7441 51.4475 69.2672 51.25 68.7699 51.25Z" fill="#C59D2C" fill-opacity="0.7"/>
<g filter="url(#filter0_d_487_2796)">
<path fill-rule="evenodd" clip-rule="evenodd" d="M107.107 61C107.107 73 102.607 85.1 94.2066 93.9C85.9066 102.8 73.5066 108 61.3066 107.8C55.2066 107.6 49.1066 106.3 43.5066 103.9C38.0066 101.4 32.9066 97.9 28.7066 93.6C20.2066 85.1 15.1066 73.2 14.9066 61C14.6066 48.9 19.5066 36.6 28.1066 27.9C32.4066 23.5 37.6066 20 43.3066 17.6C49.0066 15.2 55.1066 14 61.3066 14C67.4066 14 73.6066 15.2 79.3066 17.7C84.9066 20.1 90.0066 23.7 94.2066 28.1C102.607 37 107.107 49 107.107 61ZM106.807 61C106.907 49 101.607 37.3 93.0066 29.3C84.4066 21.3 72.9066 16.6 61.3066 16.7C49.7066 16.7 38.2066 21.4 29.9066 29.6C21.5066 37.8 16.6066 49.2 16.3066 61C16.1066 72.8 20.8066 84.7 29.3066 93C37.7066 101.4 49.7066 105.8 61.3066 105.6C73.0066 105.4 84.5066 100.8 93.0066 92.7C101.607 84.7 106.907 73 106.807 61Z" fill="#C59D2C" fill-opacity="0.7" shape-rendering="crispEdges"/>
</g>
<g filter="url(#filter1_d_487_2796)">
<path d="M27.3936 92L20.8936 116C48.4936 132.8 87.3936 123 103.394 116L95.8936 92C68.6936 120.4 38.8936 103.833 27.3936 92Z" stroke="#C59D2C" stroke-opacity="0.7" shape-rendering="crispEdges"/>
</g>
<g filter="url(#filter2_f_487_2796)">
<path d="M62.5429 46C64.2304 46.0045 65.0869 46.0135 65.8264 46.0345L66.1174 46.045C66.4534 46.057 66.7849 46.072 67.1854 46.09C68.7814 46.165 69.8704 46.417 70.8259 46.7875C71.8159 47.1685 72.6499 47.6845 73.4839 48.517C74.2466 49.2668 74.8368 50.1739 75.2134 51.175C75.5839 52.1305 75.8359 53.2195 75.9109 54.817C75.9289 55.216 75.9439 55.5475 75.9559 55.885L75.9649 56.176C75.9874 56.914 75.9964 57.7705 75.9994 59.458L76.0009 60.577V62.542C76.0046 63.6361 75.993 64.7302 75.9664 65.824L75.9574 66.115C75.9454 66.4525 75.9304 66.784 75.9124 67.183C75.8374 68.7805 75.5824 69.868 75.2134 70.825C74.8379 71.8267 74.2475 72.7339 73.4839 73.483C72.7338 74.2455 71.8268 74.8356 70.8259 75.2125C69.8704 75.583 68.7814 75.835 67.1854 75.91C66.8294 75.9268 66.4734 75.9418 66.1174 75.955L65.8264 75.964C65.0869 75.985 64.2304 75.9955 62.5429 75.9985L61.4239 76H59.4604C58.3658 76.0038 57.2712 75.9923 56.1769 75.9655L55.8859 75.9565C55.5298 75.943 55.1738 75.9275 54.8179 75.91C53.2219 75.835 52.1329 75.583 51.1759 75.2125C50.1749 74.8366 49.2682 74.2463 48.5194 73.483C47.7559 72.7334 47.1652 71.8263 46.7884 70.825C46.4179 69.8695 46.1659 68.7805 46.0909 67.183C46.0742 66.8271 46.0592 66.4711 46.0459 66.115L46.0384 65.824C46.0107 64.7302 45.9982 63.6361 46.0009 62.542V59.458C45.9967 58.3639 46.0077 57.2698 46.0339 56.176L46.0444 55.885C46.0564 55.5475 46.0714 55.216 46.0894 54.817C46.1644 53.2195 46.4164 52.132 46.7869 51.175C47.1635 50.1729 47.7554 49.2655 48.5209 48.517C49.2695 47.7542 50.1756 47.164 51.1759 46.7875C52.1329 46.417 53.2204 46.165 54.8179 46.09C55.2169 46.072 55.5499 46.057 55.8859 46.045L56.1769 46.036C57.2707 46.0093 58.3648 45.9978 59.4589 46.0015L62.5429 46ZM61.0009 53.5C59.0117 53.5 57.1041 54.2902 55.6976 55.6967C54.291 57.1032 53.5009 59.0109 53.5009 61C53.5009 62.9891 54.291 64.8968 55.6976 66.3033C57.1041 67.7098 59.0117 68.5 61.0009 68.5C62.99 68.5 64.8976 67.7098 66.3042 66.3033C67.7107 64.8968 68.5009 62.9891 68.5009 61C68.5009 59.0109 67.7107 57.1032 66.3042 55.6967C64.8976 54.2902 62.99 53.5 61.0009 53.5ZM61.0009 56.5C61.5918 56.4999 62.177 56.6162 62.723 56.8423C63.269 57.0683 63.7651 57.3997 64.1831 57.8175C64.601 58.2353 64.9325 58.7313 65.1588 59.2772C65.385 59.8232 65.5015 60.4083 65.5016 60.9993C65.5017 61.5902 65.3854 62.1754 65.1594 62.7214C64.9333 63.2674 64.6019 63.7635 64.1841 64.1815C63.7663 64.5994 63.2703 64.9309 62.7244 65.1572C62.1785 65.3834 61.5933 65.4999 61.0024 65.5C59.8089 65.5 58.6643 65.0259 57.8204 64.182C56.9765 63.3381 56.5024 62.1935 56.5024 61C56.5024 59.8065 56.9765 58.6619 57.8204 57.818C58.6643 56.9741 59.8089 56.5 61.0024 56.5M68.8774 51.25C68.3801 51.25 67.9032 51.4475 67.5515 51.7992C67.1999 52.1508 67.0024 52.6277 67.0024 53.125C67.0024 53.6223 67.1999 54.0992 67.5515 54.4508C67.9032 54.8025 68.3801 55 68.8774 55C69.3746 55 69.8516 54.8025 70.2032 54.4508C70.5548 54.0992 70.7524 53.6223 70.7524 53.125C70.7524 52.6277 70.5548 52.1508 70.2032 51.7992C69.8516 51.4475 69.3746 51.25 68.8774 51.25Z" fill="#FFC727"/>
</g>
<defs>
<filter id="filter0_d_487_2796" x="0.893555" y="0" width="120.213" height="121.806" filterUnits="userSpaceOnUse" color-interpolation-filters="sRGB">
<feFlood flood-opacity="0" result="BackgroundImageFix"/>
<feColorMatrix in="SourceAlpha" type="matrix" values="0 0 0 0 0 0 0 0 0 0 0 0 0 0 0 0 0 0 127 0" result="hardAlpha"/>
<feOffset/>
<feGaussianBlur stdDeviation="7"/>
<feComposite in2="hardAlpha" operator="out"/>
<feColorMatrix type="matrix" values="0 0 0 0 1 0 0 0 0 0.745098 0 0 0 0 0.290196 0 0 0 1 0"/>
<feBlend mode="normal" in2="BackgroundImageFix" result="effect1_dropShadow_487_2796"/>
<feBlend mode="normal" in="SourceGraphic" in2="effect1_dropShadow_487_2796" result="shape"/>
</filter>
<filter id="filter1_d_487_2796" x="6.31299" y="77.022" width="111.691" height="62.7539" filterUnits="userSpaceOnUse" color-interpolation-filters="sRGB">
<feFlood flood-opacity="0" result="BackgroundImageFix"/>
<feColorMatrix in="SourceAlpha" type="matrix" values="0 0 0 0 0 0 0 0 0 0 0 0 0 0 0 0 0 0 127 0" result="hardAlpha"/>
<feOffset/>
<feGaussianBlur stdDeviation="7"/>
<feComposite in2="hardAlpha" operator="out"/>
<feColorMatrix type="matrix" values="0 0 0 0 1 0 0 0 0 0.745098 0 0 0 0 0.290196 0 0 0 1 0"/>
<feBlend mode="normal" in2="BackgroundImageFix" result="effect1_dropShadow_487_2796"/>
<feBlend mode="normal" in="SourceGraphic" in2="effect1_dropShadow_487_2796" result="shape"/>
</filter>
<filter id="filter2_f_487_2796" x="45" y="45" width="32.0015" height="32.0005" filterUnits="userSpaceOnUse" color-interpolation-filters="sRGB">
<feFlood flood-opacity="0" result="BackgroundImageFix"/>
<feBlend mode="normal" in="SourceGraphic" in2="BackgroundImageFix" result="shape"/>
<feGaussianBlur stdDeviation="0.5" result="effect1_foregroundBlur_487_2796"/>
</filter>
</defs>
</svg>
